# xmcd
#
# Track frame offsets:
#	150
#	16337
#	31725
#	46954
#	64940
#	80285
#	97605
#	116788
#	134942
#	153614
#	172595
#	190967
#	212695
#
# Disc length: 3065 seconds
#
# Revision: 1
# Processed by: cddbd v1.5.2PL0 Copyright (c) Steve Scherf et al.
# Submitted via: audiograbber 1.83.01
#
DISCID=a60bf70d
DTITLE=Dolly Parton - Blue Smoke
DYEAR=2014
DGENRE=Country
TTITLE0=Blue Smoke
TTITLE1=Unlikely Angel
TTITLE2=Don't Think Twice
TTITLE3=You Can't Make Old Friends (feat. Kenny Rogers)
TTITLE4=Home
TTITLE5=Banks of the Ohio
TTITLE6=Lay Your Hands on Me
TTITLE7=Miss You-Miss Me
TTITLE8=If I Had Wings
TTITLE9=Lover du Jour
TTITLE10=From Here to the Moon and Back (feat. Willie Nelson)
TTITLE11=Try
TTITLE12=He's everything ft- Queen Latifah and Dolly Parton
EXTD=
EXTT0=
EXTT1=
EXTT2=
EXTT3=
EXTT4=
EXTT5=
EXTT6=
EXTT7=
EXTT8=
EXTT9=
EXTT10=
EXTT11=
EXTT12=
PLAYORDER=
